<svg id="Layer_1" enable-background="new 0 0 512 512" height="512" viewBox="0 0 512 512" width="512" xmlns="http://www.w3.org/2000/svg"><g><path d="m512 340.677v165.22c0 3.371-2.733 6.103-6.103 6.102l-239.697-.038v-171.324c-.07-12.68 9.43-23.379 22.02-24.809l82.16-8.15 44.36.03 75.24 8.15c12.59 1.44 22.08 12.13 22.02 24.819z" fill="#f76ba0"/><path d="m512 340.677v165.22c0 3.371-2.733 6.103-6.103 6.102l-239.697-.038v-15.299h164.67c8.395 0 15.2-6.805 15.2-15.2v-104.316c0-4.22 3.48-7.63 7.73-7.5 4.1.12 7.27 3.71 7.27 7.81v104.006c0 4.2 1.7 8 4.45 10.75 2.76 2.75 6.56 4.45 10.75 4.45 11.17 0 20.22-9.05 20.22-20.209v-133.366c0-7.8-5.23-14.629-12.75-16.669l-69-18.709 75.24 8.15c12.59 1.439 22.08 12.129 22.02 24.818z" fill="#ce547e"/><path d="m355.365 74.86h72.796v-38.462c0-20.102-16.296-36.398-36.398-36.398-20.102 0-36.398 16.296-36.398 36.398z" fill="#f77a49"/><g fill="#ffc796"><path d="m338.455 180.939h-33.806c-10.047 0-18.192-8.15-18.192-18.203s8.145-18.203 18.192-18.203h33.894z"/><path d="m455.071 180.939h23.806c10.047 0 18.191-8.15 18.191-18.203s-8.145-18.203-18.191-18.203h-23.894z"/></g><path d="m465.83 92.557v51.978l-72.93 41.438-.03.02-73.17-41.458v-53.988c0-19.669 15.9-35.619 35.53-35.689h72.93c20.8 0 37.67 16.879 37.67 37.699z" fill="#f77a49"/><path d="m465.83 92.557v51.978l-72.93 41.438v-93.416c0-20.779-16.79-37.629-37.54-37.699h72.8c20.8 0 37.67 16.879 37.67 37.699z" fill="#e85941"/><g><path d="m413.31 301.419c.28 2.29.74 4.45 1.44 6.26 0 12.26-9.94 22.199-22.19 22.199s-22.18-9.94-22.18-22.199c.71-1.85 1.18-4.06 1.46-6.41.81-6.94-.08-15.1-1.46-18.859h44.37c-1.4 3.79-2.29 12.04-1.44 19.009z" fill="#ffe6c7"/><path d="m413.31 301.419c-6.35 3.14-13.4 4.79-20.59 4.77-7.3.01-14.44-1.69-20.88-4.92.81-6.94-.08-15.1-1.46-18.859h44.37c-1.4 3.79-2.29 12.04-1.44 19.009z" fill="#ffd5b0"/></g><path d="m466.58 215.222c0 15.289-11.28 33.179-33.59 53.268-3.39 3.05-7.04 6.16-10.94 9.32-8.29 6.73-18.64 10.41-29.33 10.379-10.7.02-21.08-3.65-29.37-10.4-29.53-23.899-44.51-44.948-44.51-62.568 0-1.87.07-3.74.23-5.54.76-7.75 1.04-42.218.63-65.147 5.25 1.33 10.75 2.04 16.41 2.04 23.48 0 44.93-12.18 56.76-30.579.01-.02.02-.03.03-.05 11.81 18.429 32.61 30.629 56.11 30.629 5.81 0 11.45-.74 16.82-2.15-.02 22.679-.23 57.548.53 65.208.15 1.85.22 3.72.22 5.59z" fill="#ffe6c7"/><path d="m466.58 215.222c0 15.289-11.28 33.179-33.59 53.268 10.75-15.08 16.59-39.158 16.59-53.268 0-1.87-.08-3.74-.23-5.58-.61-6.19-.58-14.779-.55-35.959.02-8.82-3.8-14.809-14.45-18.779-18.35-6.84-41.48-23.598-41.48-38.908.01-.02.02-.03.03-.05 11.81 18.429 32.61 30.629 56.11 30.629 5.81 0 11.45-.74 16.82-2.15-.02 22.679-.23 57.548.53 65.208.15 1.849.22 3.719.22 5.589z" fill="#ffd5b0"/><g fill="#ffc796"><path d="m408.64 223.709c-4.142 0-7.5 3.358-7.5 7.5 0 4.725-3.838 8.569-8.556 8.569s-8.556-3.844-8.556-8.569c0-4.142-3.358-7.5-7.5-7.5s-7.5 3.358-7.5 7.5c0 12.996 10.567 23.568 23.556 23.568s23.556-10.573 23.556-23.568c0-4.142-3.358-7.5-7.5-7.5z"/><path d="m381.28 209.25c1.108.577 2.292.851 3.46.851 2.706 0 5.32-1.469 6.657-4.035.227-.436.736-.901 1.485-.901s1.258.466 1.485.901c1.915 3.673 6.444 5.097 10.118 3.183 3.673-1.915 5.098-6.445 3.183-10.117-2.884-5.531-8.549-8.966-14.786-8.966s-11.903 3.436-14.787 8.967c-1.914 3.673-.488 8.203 3.185 10.117z"/></g><g><path d="m248.6 303.659v208.322h-241.9c-3.7 0-6.7-3-6.7-6.7v-201.622c-.06-12.679 9.43-23.379 22.02-24.809l80.1-8.19h44.37l80.09 8.19c12.59 1.43 22.09 12.129 22.02 24.809z" fill="#feac38"/><path d="m248.6 303.659v208.322h-241.9c-3.7 0-6.7-3-6.7-6.7v-8.62h27.186c11.213 0 20.304-9.09 20.304-20.303v-135.978c0-3.813 2.739-7.211 6.522-7.691 4.576-.58 8.478 2.976 8.478 7.438v136.231c0 11.213 9.09 20.303 20.304 20.303h153.296v-186.943c0-7.9-5.15-14.879-12.7-17.199l-76.9-21.859 80.09 8.19c12.59 1.43 22.09 12.129 22.02 24.809z" fill="#f9893c"/><g><path d="m145.05 264.4c.28 2.29.74 4.45 1.44 6.26 0 12.26-9.94 22.199-22.19 22.199s-22.18-9.94-22.18-22.199c.71-1.85 1.18-4.06 1.46-6.41.81-6.94-.08-15.1-1.46-18.859h44.37c-1.4 3.79-2.29 12.039-1.44 19.009z" fill="#ffe6c7"/><path d="m145.05 264.4c-6.35 3.14-13.4 4.79-20.59 4.77-7.3.01-14.44-1.69-20.88-4.92.81-6.94-.08-15.1-1.46-18.859h44.37c-1.4 3.79-2.29 12.039-1.44 19.009z" fill="#ffd5b0"/></g><path d="m223.47 120.866-169.65-.96-26.32-.15c-6.13-34.039-4.09-82.367 26.32-85.507 2.49-.29 4.62-2 5.56-4.46 6.98-15.82 22.76-24.269 41.3-27.789 20.67-3.91 44.77-1.69 63.89 3.29 23.26 6.03 49.82 18.829 57.65 45.858 6.43 21.209 5.45 47.888 1.25 69.718z" fill="#b77e5a"/><path d="m223.47 120.866-169.65-.96c-2.37-7.72-2.39-12.769-2.39-12.769-.85-38.409 95.51-42.938 133.84-37.599 9.15 1.27 16.69-7.21 14.05-16.049-.04-.12-.07-.23-.1-.34-7.83-27.029-34.39-39.828-57.65-45.858-12.31-3.2-26.69-5.27-40.89-5.29 20.67-3.91 44.77-1.69 63.89 3.29 23.26 6.03 49.82 18.829 57.65 45.858 6.43 21.208 5.45 47.887 1.25 69.717z" fill="#98654c"/><path d="m71.477 153.113h-33.806c-10.047 0-18.191-8.15-18.191-18.203s8.145-18.203 18.191-18.203h33.894z" fill="#ffc796"/><path d="m188.093 153.113h23.806c10.047 0 18.191-8.15 18.191-18.203s-8.145-18.203-18.191-18.203h-23.894z" fill="#ffc796"/><path d="m198.33 178.203c0 17.029-13.97 37.239-41.55 60.138-.01.02-.02.03-.04.04-.97.79-1.95 1.6-2.95 2.41-8.28 6.74-18.64 10.41-29.33 10.379-10.7.02-21.07-3.65-29.37-10.4-29.53-23.899-44.51-44.948-44.51-62.568 0-1.87.07-3.74.23-5.54.77-7.79 1.04-42.598.62-65.527-.2-7.62 4-14.659 10.79-18.119.03-.01.06-.02.11-.05 30.44-13.399 94.21-13.359 124.24 0 6.9 3.39 11.2 10.48 11 18.169v.02c-.01 22.669-.23 57.778.53 65.468.15 1.84.23 3.711.23 5.58z" fill="#ffe6c7"/><path d="m198.33 178.203c0 17.029-13.97 37.239-41.55 60.138 14.53-13.39 22.55-43.608 22.55-60.138 0-1.87-.08-3.74-.23-5.58-.612-6.187-.589-36.774-.551-57.954.016-8.823-5.929-16.523-14.458-18.785-35.205-9.338-86.15-10.575-101.761-6.918 30.44-13.399 94.21-13.359 124.24 0 6.9 3.39 11.2 10.48 11 18.169v.02c-.01 22.669-.23 57.778.53 65.468.15 1.84.23 3.711.23 5.58z" fill="#ffd5b0"/><g fill="#ffc796"><path d="m140.383 186.694c-4.142 0-7.5 3.358-7.5 7.5 0 4.725-3.838 8.569-8.556 8.569s-8.556-3.844-8.556-8.569c0-4.142-3.358-7.5-7.5-7.5s-7.5 3.358-7.5 7.5c0 12.996 10.567 23.568 23.556 23.568s23.556-10.573 23.556-23.568c0-4.142-3.358-7.5-7.5-7.5z"/><path d="m113.023 172.234c3.674 1.914 8.204.489 10.117-3.184.227-.436.736-.9 1.485-.9s1.257.465 1.484.9c1.337 2.566 3.951 4.035 6.657 4.035 1.167 0 2.353-.273 3.46-.851 3.673-1.914 5.099-6.444 3.185-10.117-2.883-5.531-8.548-8.967-14.786-8.967s-11.904 3.436-14.787 8.967c-1.914 3.674-.488 8.203 3.185 10.117z"/></g></g><g><path d="m342.51 458.673v48.078c0 2.89-2.34 5.23-5.22 5.23h-162.8c-2.89 0-5.23-2.34-5.23-5.23v-48.078c0-25.809 20.91-46.728 46.7-46.728h79.86c25.79 0 46.69 20.919 46.69 46.728z" fill="#997ab8"/><path d="m206.556 339.878h-7.736c-6.062 0-11.56-4.01-12.971-9.905-2.076-8.673 4.442-16.403 12.766-16.403h7.983l9.979 13.155z" fill="#ffc796"/><path d="m303.842 339.878h7.736c6.062 0 11.56-4.01 12.971-9.905 2.076-8.673-4.442-16.403-12.766-16.403h-7.983l-9.979 13.154z" fill="#ffc796"/><path d="m276.06 406.525c.29 1.98.72 3.83 1.33 5.42 0 12.26-9.93 22.209-22.18 22.209-12.26 0-22.19-9.95-22.19-22.209.61-1.58 1.04-3.43 1.33-5.41 1.03-7.13.13-15.909-1.33-19.849h44.37c-1.45 3.939-2.35 12.709-1.33 19.839z" fill="#ffe6c7"/><path d="m276.06 406.525c-5.89 4.79-13.26 7.4-20.86 7.38-7.58.01-14.95-2.59-20.85-7.37 1.03-7.13.13-15.909-1.33-19.849h44.37c-1.45 3.939-2.35 12.709-1.33 19.839z" fill="#ffd5b0"/><path d="m304.4 352.307c0 11.47-9.53 25.119-28.33 40.588-.44.36-.88.73-1.33 1.09-5.52 4.49-12.42 6.94-19.54 6.92-7.12.01-14.03-2.44-19.56-6.93-19.67-15.919-29.64-29.938-29.64-41.668 0-1.25.04-2.5.15-3.69.49-5.01.61-28.409.37-43.648 0-24.879 18.62-45.388 42.69-48.348 1.96-.25 3.97-.37 6-.37 26.89 0 48.69 21.809 48.69 48.718-.01 15.1-.16 38.499.35 43.618.1 1.22.15 2.47.15 3.72z" fill="#ffe6c7"/><path d="m304.4 352.307c0 11.47-9.53 25.119-28.33 40.588 10.86-14.799 16.33-31.889 16.33-40.588 0-1.25-.05-2.5-.15-3.72-.51-5.12-.36-28.519-.35-43.618 0-24.879-18.63-45.388-42.69-48.348 1.96-.25 3.97-.37 6-.37 26.89 0 48.69 21.809 48.69 48.718-.01 15.1-.16 38.499.35 43.618.1 1.22.15 2.47.15 3.72z" fill="#ffd5b0"/><path d="m266.806 350.319c-3.673-1.914-8.203-.489-10.117 3.184-.227.436-.736.901-1.485.901s-1.258-.466-1.485-.901c-1.915-3.673-6.446-5.097-10.117-3.184-3.673 1.914-5.099 6.444-3.184 10.117 2.883 5.532 8.549 8.967 14.786 8.967 6.238 0 11.904-3.436 14.787-8.968 1.914-3.672.487-8.202-3.185-10.116z" fill="#ffc796"/><path d="m342.51 458.673v48.088c0 2.883-2.337 5.22-5.22 5.22h-162.8c-2.888 0-5.23-2.341-5.23-5.23v-10.09h24.432c4.456 0 8.068-3.612 8.068-8.068v-28.921c0-4.21 3.465-7.613 7.712-7.497 4.112.113 7.288 3.695 7.288 7.808v28.61c0 4.456 3.612 8.068 8.068 8.068h62.904c4.456 0 8.068-3.612 8.068-8.068v-28.61c0-4.113 3.177-7.695 7.288-7.808 4.247-.117 7.712 3.287 7.712 7.497v17.375c0 10.29 15.495 10.987 16.104.715.024-.4.036-.804.036-1.21v-21.499c0-23.809-19.3-43.109-43.11-43.109h11.99c25.79.001 46.69 20.92 46.69 46.729z" fill="#6957a1"/></g></g></svg>