<svg height="512" viewBox="0 0 512 512" width="512" xmlns="http://www.w3.org/2000/svg"><g id="flat"><rect fill="#026ca2" height="352" rx="18" width="464" x="24" y="56"/><path d="m56 88h400v288h-400z" fill="#0296e5"/><path d="m184 456h144l8 32h-160z" fill="#026ca2"/><path d="m272 408v8a16 16 0 0 1 -32 0v-8h-24v48h80v-48z" fill="#015078"/><path d="m368 344h-196a20 20 0 0 1 -20-20v-276h216z" fill="#d32b39"/><path d="m200 96h136v104h-136z" fill="#cbcbcb"/><path d="m368 64h-196a20 20 0 0 1 -20-20 20 20 0 0 1 20-20h196z" fill="#cbcbcb"/><g fill="#d32b39"><path d="m236 144h44v36h-44z"/><path d="m304 144-32 8v16l32 8z"/><path d="m274 108a21.9 21.9 0 0 0 -14 5.042 22 22 0 1 0 0 33.916 22 22 0 1 0 14-38.958zm-28 28a6 6 0 1 1 6-6 6.006 6.006 0 0 1 -6 6zm28 0a6 6 0 1 1 6-6 6.006 6.006 0 0 1 -6 6z"/></g><path d="m240 256h-8a8 8 0 0 1 0-16h8a8 8 0 0 1 0 16z" fill="#961b20"/><path d="m296 256h-32a8 8 0 0 1 0-16h32a8 8 0 0 1 0 16z" fill="#961b20"/><path d="m272 288h-40a8 8 0 0 1 0-16h40a8 8 0 0 1 0 16z" fill="#961b20"/><path d="m178 120h-68a22 22 0 0 0 -22 22v52a22 22 0 0 0 22 22h50l40 24v-98a22 22 0 0 0 -22-22z" fill="#8feaff"/><path d="m168 160h-48a8 8 0 0 1 0-16h48a8 8 0 0 1 0 16z" fill="#0bafea"/><path d="m144 192h-24a8 8 0 0 1 0-16h24a8 8 0 0 1 0 16z" fill="#0bafea"/><path d="m318 344h84a22 22 0 0 0 22-22v-52a22 22 0 0 0 -22-22h-66l-40-16v90a22 22 0 0 0 22 22z" fill="#fbb540"/><path d="m384 344h-66a21.925 21.925 0 0 1 -11.04-2.96l37.04-37.04z" fill="#fbb540"/><path d="m384 344h-66a21.925 21.925 0 0 1 -11.04-2.96l37.04-37.04z" fill="#02a437"/><circle cx="384" cy="288" fill="#d32b39" r="16"/></g></svg>