<svg viewBox="0 0 172 91.2" xmlns="http://www.w3.org/2000/svg" xmlns:xlink="http://www.w3.org/1999/xlink"><linearGradient id="c" gradientTransform="matrix(1 0 0 -1 0 91.89)" gradientUnits="userSpaceOnUse" x1="0" x2="172" y1="46.84" y2="46.84"><stop offset="0" stop-color="#84194c"/><stop offset="1" stop-color="#7ea2cb"/></linearGradient><linearGradient id="a"><stop offset="0" stop-opacity="0"/><stop offset="1"/></linearGradient><linearGradient id="d" gradientTransform="matrix(1 0 0 -1 0 91.89)" gradientUnits="userSpaceOnUse" x1="34.05" x2="34.05" xlink:href="#a" y1="38.154" y2="82.902"/><linearGradient id="e" gradientTransform="matrix(1 0 0 -1 0 91.89)" gradientUnits="userSpaceOnUse" x1="82.55" x2="82.55" xlink:href="#a" y1="38.19" y2="82.941"/><linearGradient id="f" gradientTransform="matrix(1 0 0 -1 0 91.89)" gradientUnits="userSpaceOnUse" x1="131.45" x2="131.45" xlink:href="#a" y1="38.154" y2="82.922"/><linearGradient id="g" gradientTransform="matrix(-1 0 0 1 1187.82 -168.621)" gradientUnits="userSpaceOnUse" x1="1150.821" x2="1150.821" xlink:href="#a" y1="197.121" y2="241.872"/><linearGradient id="b"><stop offset="0"/><stop offset="1" stop-opacity="0"/></linearGradient><linearGradient id="h" gradientTransform="matrix(1 0 0 -1 0 91.89)" gradientUnits="userSpaceOnUse" x1="54.9" x2="80.665" xlink:href="#b" y1="32.29" y2="32.29"/><linearGradient id="i" gradientTransform="matrix(1 0 0 -1 0 91.89)" gradientUnits="userSpaceOnUse" x1="135.15" x2="135.15" xlink:href="#b" y1="27.563" y2="68.146"/><linearGradient id="j" gradientTransform="matrix(1 0 0 -1 0 91.89)" gradientUnits="userSpaceOnUse" x1="31.4" x2="31.4" xlink:href="#a" y1="37.89" y2="82.641"/><linearGradient id="k" gradientTransform="matrix(1 0 0 -1 0 91.89)" gradientUnits="userSpaceOnUse" x1="82.55" x2="82.55" xlink:href="#a" y1="37.89" y2="82.641"/><linearGradient id="l" gradientTransform="matrix(1 0 0 -1 0 91.89)" gradientUnits="userSpaceOnUse" x1="131.45" x2="131.45" xlink:href="#a" y1="37.924" y2="82.692"/><linearGradient id="m" gradientTransform="matrix(-1 0 0 1 1187.82 -168.621)" gradientUnits="userSpaceOnUse" x1="1150.821" x2="1150.821" xlink:href="#a" y1="197.366" y2="242.116"/><linearGradient id="n" gradientTransform="matrix(1 0 0 -1 0 91.89)" gradientUnits="userSpaceOnUse" x1="54.9" x2="80.665" xlink:href="#b" y1="32.14" y2="32.14"/><linearGradient id="o" gradientTransform="matrix(1 0 0 -1 0 91.89)" gradientUnits="userSpaceOnUse" x1="135.15" x2="135.15" xlink:href="#b" y1="27.363" y2="67.946"/><path d="M7.3 85.2c.1 0 .2.1 0 0 0 .2-.1.2-.2.2-.1.1-.1 0-.1-.1s.1-.2.3-.1zm-.5.8s0 .1 0 0c.2 0 .2 0 .2-.1 0 0 0-.1-.1-.1s-.1.1-.1.2zm2.9-4.3c.1 0 .1 0 0 0 .1-.1.1-.1 0-.2zm-.5-2.5c-.2 0-.2.1-.2.2s.1.1.2.1.1-.1.1-.2zM7 83.3c-.1.2-.1.4-.2.6.3-.1.5-.2.2-.6zm10.1-20.8c.5-.4.6-1 .5-1.6-.5.4-.3 1.1-.5 1.6zm2.5-9.9c0-.5.1-.9.1-1.2-.4.6-.4.7-.1 1.2zM4.4 88c-.1 0-.1 0 0 0-.1 0 0 0 0 0zm1.4.1c-.4.1-.5.3-.5.6 0 .2 0 .5.5.5 0 .2-.3.1-.3.2.7.3.7.3.7-.2 0-.2.1-.5.2-.7 0-.2-.3-.4-.6-.4zm.1 2c-.3.6-.3 1.2-.2 1.9.3-.6.3-1.2.2-1.9zm-1.8 1.2c.2-.4.2-.9.3-1.5-.5.5-.4 1-.3 1.5zm-2.9-5.2c.3-.3.7-.5.5-.9-.2.2-.8.4-.5.9zM1.1 63c-.3.5-.1.9-.1 1.3.2-.4.3-.7.1-1.3zm3.2 26.5c.1 0 .2 0 .2-.1-.1-.3.1-.6-.2-.8v.9c-.2-.1-.1 0 0 0zM5 92c.2-.2.4-.5.1-.8 0 .3-.3.5-.1.8zm-3.6-7.2c.6-.1.4-.4.4-.6-.4.1-.6.3-.4.6zm.3-.6c0-.1 0-.1 0 0 0-.1 0 0 0 0zm3.6 6.6v-.7c-.3.4-.3.4 0 .7zm-1.1-2.3c.3-.1.5-.2.1-.5 0 .1-.4.3-.1.5zm0 .1c0-.1 0-.1 0 0zm.2-.6c-.1 0-.1 0 0 0-.1 0 0 0 0 0zm-.9 1.1c-.3 0-.6-.1-.8-.3.1.4.1.4.8.3zM1 74.9c0-.1 0-.2-.2-.3-.2.1-.1.2-.1.3s0 .2.2.2c.1 0 .1-.1.1-.2zm1.5 12.4c-.2.1-.1.2 0 .2h.1s0-.1-.1-.2zm.1 1c0 .1-.3.3 0 .5.1-.2.3-.3 0-.5zm1-.5c-.1.1-.1.2 0 .2h.1c0-.1-.1-.1-.1-.2zm-1.1 2.6c.1 0 .1 0 0 0 .1-.1 0-.1 0 0 0-.1 0 0 0 0zm-.1.7s.1 0 0 0c.1-.1.1-.1 0 0 .1-.2 0-.2 0 0 0-.1 0-.1 0 0zm-2.3-22S.2 69 0 69c0 .1 0 .2.1.1zM1.6 76c0-.1-.1-.1-.1 0 0 0 0 .1.1 0-.1.1 0 .1 0 0zm-1 10.6s.1 0 0 0c.1 0 .1-.1.1-.1-.1 0-.1.1-.1.1zm3.2.7c-.1.1-.1.2 0 .2.1-.1.1-.1 0-.2.2.1.1 0 0 0zm-1.7-13c0-.1-.1-.1-.2-.1l-.1.1.1.1c.1-.1.2-.1.2-.1zm20.2-34.2c-.3 1.2-.4 2.4-.7 3.6-.2.7-.3 1.7-.7 2.3s-.4 1.4-.6 2.1c-.1.4-.2.7-.3 1-.1-.4.1-.8 0-1.3-.5 0-.7.2-.8.6 0 .5 0 .9-.1 1.3-.1.6-.2 1.1-.5 1.7-.2.4.9 1.6.6 2-.3-.1-.2-.3-.2-.4v-.5c-.4.3-.5.5-.4.9.2.7.1 1.3.1 2 0 .2.1.4-.4.5 0-.5.1-1 .1-1.6-.4.1-.4.4-.4.6-.2.6-.4 1.2-.5 1.8-.4 1.3-.9 2.6-1.4 3.9-.4.9-.4 1.4-.5 2.4 0 .4-.1.8-.5 1.2s-.6.8-.6 1.3-.2.9-.3 1.4-.1 1-.4 1.5c-.2-.2-.2-.4-.2-.5h-.1c0 .3-.2.5-.1.8.2.7-.2 1.2-.4 1.8-.2.5-.3.9-.2 1.4s0 1.1-.1 1.6c-.1.6-.2 1.2-.6 1.7-.1.2-.6.1-.5.5.1.2.1.4.1.6 0 .3-.1.6-.3.8-.3.4-.3 1-.4 1.5l-.3.9c-.1.3-.4.5-.1.9.1.2-.1.3-.2.5-.3-.3-.4-.6-.2-1 .2-.5.3-1 .1-1.5v-.2c.1-.5 0-1-.3-1.6-.3.3-.1.7-.4.9-.4.3 0 .6-.1.8-.4 0-.1-.1-.2-.2s-.1-.2-.3-.1c-.1 0-.2.1-.2.2 0 .7-.2 1.4-.3 2.2-.1.9-.3 1.8-.4 2.7-.1.6-.2 1.2-.4 1.8-.1 0-.3-.4-.5-.2-.3.2-.7.3-.7.6.1.6-.2 1.2-.1 1.8 0 .2 0 .5-.1.7-.1.1-.1.3-.2.2-.2-.2-.6.1-.6-.3 0-.2-.1-.5-.1-.7s0-.3-.3-.2c-.1 0-.1-.1-.1-.2.1-.1.3-.1.3-.1.1-.1.1-.2-.1-.3s-.3-.1-.4 0-.2.2-.2.4c-.1.6-.1 1.1-.4 1.6-.3-.3.2-.5-.1-.8-.2-.2-.5-.5-.4-.8-.1-.5-.1-.6.2-1.2-.2-.1-.2-.1-.9.6-.2-.3-.1-.6-.2-.9.3 0 .2.2.4.2s.1-.1.1-.2c-.1-.3-.4-.5-.7-.7.1-.2.4 0 .5-.1.2-.2 0-.3-.1-.5 0-.1-.1-.1-.1-.2.3-.7-.3-1.5.1-2.2.2-.4-.1-.8 0-1.2l-.2-.2c-.1-.1-.2 0-.3 0-.3.5-.5.9-.5 1.3 0 .3-.3.6.2.8-.3.2.2.6-.4.7-.3 0-.1.3 0 .4.2.2.2.4.2.6s-.1.3-.3.3c-.3-.3-.3-.6-.2-.9.3-.8.2-1.7.2-2.6 0-.5.1-.9.3-1.3.2-.6.2-1.2.3-1.9 0-.1-.1-.2.1-.3.3 0 .1.3.4.4h.1c.1-.3.6-.6 0-1.1-.2.2-.1.5-.5.6-.2-.6 0-1.1.1-1.6.2-.9 0-1.8.1-2.7 0-.1 0-.2-.2-.2-.1 0-.2.1-.2.2 0 .4-.1.8-.2 1.1-.2-.5-.4-1.1-.1-1.6.2-.3 0-.6-.1-1 0-.1-.1-.2-.2-.2-.2 0-.2.1-.2.2 0 .4-.2.8-.1 1.2 0 .2 0 .5-.4.6v-1.1c.2-1 .5-1.9.2-3-.1-.3.2-.5.2-.8-.1-.7.2-1.3.2-1.9 0-.7.1-1.3.2-2 .1-1.2.4-2.5.6-3.7.1-.4 0-.7.1-1.1 0-.2-.3-.4-.1-.6.1-.1-.1-.3-.2-.3-.5 0-.5-.3-.6-.5-.3-.1-.2.2-.4.1L1 58c.1-.9-.1-1.8.2-2.7.1-.2.1-.3.1-.5.5-.9.5-2 .8-3 .2-.9.5-1.9.7-2.8.4-1.4 1-2.8 1.4-4.3.4-1.2.9-2.4 1.4-3.5.2-1.1.4-2.2.6-3.2 0-.1-.1-.1-.1-.2-.4-.3-.4-.6-.3-.9.3-1.1.7-2.2 1-3.2.1-.5.2-.9.4-1.3 0-.2.1-.5.1-.7v-.4c0-.1 0-.1.1-.2 2.5-13.8 4.9-19.9 4.9-19.9 1.4-4.3 5.1-7.7 9.7-8.1 5.2-.5 10 2.7 11.5 7.7l12.3 38.6c.5 1.6 2.9 1.6 3.4 0l12.1-38.2c1.4-4.3 5.1-7.7 9.7-8.1 5.2-.5 10 2.7 11.5 7.7l13 41.1c.3.9 1.6.9 1.8 0l10-40.6c1.4-4.3 4.5-8.2 9.8-9.2 6.9-1.2 12.8 3.8 14.3 8.7l8.1 25.5c.6 1.9 1.6 3.7 2.9 5.1 1.5 1.5 3.4 2.8 5.2 1.6 0-.4 9.9-23.4 10.5-25.2.6-2 1.2-4.1 1.8-6.1.4-1.2.9-2.3 1.4-3.5.1-.2.1-.5.4-.5.2.1.1.4 0 .6-.5 1.9-1 3.9-1.7 5.8-.3.7-.4 1.4-.5 2.1-.5 2.4-1.5 4.7-1.7 7.3.8-2.3 1.2-4.6 1.9-6.7s1.4-4.2 2.1-6.5c.2.4-.2.8 0 1.1.2 0 .2-.4.4-.4.1.1.1.2 0 .3-.2.6-.3 1.3-.1 1.8.1.2 0 .4-.1.6 0 .4-.1.9-.1 1.2.2.6.1 1.2 0 1.8 0 .2-.1.5 0 .6.2.3 0 .6-.1.8s-.3.4-.3.6c.1.7 0 1.3-.5 1.8v.1c.3 1.4-.5 2.8-.6 4.2v.4c.9-3.1 1.6-6.1 2.7-9.2.1.5 0 .9-.1 1.2-.4 1.2-.9 2.3-.9 3.5-.7 1.6-.7 3.4-1.3 5.1-.1.3-.1.5.1.8.5-1.8.9-3.6 1.5-5.4.5-1.8 1-3.6 1.6-5.3.6-1.8 1.2-3.6 1.7-5.4s1.1-3.6 1.6-5.4 1-3.6 1.6-5.3c0 1-.4 2-.7 3-.4 1.6-.7 3.3-1.3 4.8-.1.2-.2.6 0 .7s.3-.2.5-.4c.1-.1.1-.2.2-.2-.2.8-.2 1.7-.6 2.5-.6 1.2-.8 2.6-1.2 3.9-.1.2-.1.4.1.4s.3-.1.3-.3c.4-.9.7-1.8.9-2.8.1-.4.2-.8.4-1.1.2.3-.1.8-.1 1.1.2.1.3-.2.3-.4.2-.6.4-1.3.6-2 .1-.2.2-.5.4-.4s.1.3.1.5-.2.3-.1.5c.1 0 .2-.2.3-.2s.1.2.1.3c-.2.8-.4 1.5-.6 2.3-.8 2.4-1.6 4.9-2.4 7.4-.5 1.7-.9 3.4-1.3 5.1-.4 1.8-.9 3.6-1.3 5.4-.2 1-.3 2.1-.7 3.1.3-.3.4-.6.5-1 .6-1.7.9-3.5 1.4-5.3.8-3.3 1.9-6.6 2.9-9.8.3-1 .7-2.1 1-3.1.2-.8.5-1.5.9-2.2.3-.5.5-1.1.6-1.7.2-1.4.7-2.7 1.1-4.1.1-.5.3-.9.8-1.3-.1 1.8-.5 3.4-1.1 5-.5 1.3-.9 2.6-1.2 3.9-.8 3.1-1.6 6.3-2.3 9.4-.4 1.8-.7 3.6-1.3 5.3-.2.6-.3 1.1-.5 1.7-3.5 13.9-9.4 40.9-9.4 40.9-1.4 4.3-5.1 7.7-9.7 8.1-5.2.5-10-2.7-11.5-7.7l-12.3-38.6c-.5-1.6-2.9-1.6-3.4 0l-12.1 44c-1.4 4.3-5.1 7.7-9.7 8.1-5.2.5-10-2.7-11.5-7.7 0 0-3.4-24.2-10.7-19.7C62.6 65 55 72.9 55 72.9c-1.8 3.2-4.8 5.9-8.5 5.8-5.3-.1-7.8-2.7-9.4-7.7l-9.9-31.2c-1.2-3.9-3-9.3-3.5-5.2v.1c.1.3.2.5.1.8h-.2m144.5-22.9c.2-.6.5-1.2.5-1.8-.1.6-.4 1.2-.5 1.8zm-.7 2c.2-.3.3-.6.4-1.1-.2.5-.3.7-.4 1.1zm-1 2.7c.1 0 .1.1.2.1.1-.4.2-.7.4-1.2-.4.3-.4.8-.6 1.1zm0-6.8c.4-.4.4-.9.4-1.3-.3.4-.5.8-.4 1.3zm-1 10.8c0-.1 0-.2 0 0-.1 0-.1 0-.2.1v.1c.1-.1.2-.1.2-.2zm.6-2.2c.2-.3.2-.5.2-.9-.2.5-.3.7-.2.9zm-.4-5.9c.1-.2.3-.5.2-.8-.3.3-.2.6-.2.8zm-.4 4.1c.1 0 .2.1.2 0 .1-.7.7-1.2.5-1.9-.3.5-.7.9-.8 1.5-.1.2 0 .3.1.4zm-.2 1.4l.1-.1c.1-.1.1-.2 0-.2 0 0-.1 0-.1.1-.1 0-.1.1 0 .2zm-.8-1.5c.1-.2.2-.3.1-.5 0 .2-.1.4-.1.5zM5.3 70.2s0 .1 0 0c.3 0 .2-.1.2-.2l-.1-.1c-.1.1-.1.3-.1.3zm1.8 9.2c0-.2.1-.4 0-.6-.2.2-.2.2 0 .6zm-.2.3s-.1.1 0 0c-.1.1-.1.2 0 .2.1.1.1 0 .1 0 0-.1 0-.2-.1-.2zm-.7-.4c.1-.5.6-.9 0-1.5 0 .3-.1.6-.1.8.2.2-.4.4.1.7zm.7 2.5c-.1.1 0 .2.1.2 0 0 .1 0 .1-.1-.1 0-.1-.1-.2-.1zm-2.2-8.6s0 .1 0 0c0 .1.1 0 0 0 .1 0 .1-.1 0 0zm2.1 11.2c-.1-.1-.2-.1-.2 0zM6 79.9c0-.2 0-.1 0 0-.1-.1-.1 0 0 0zm2.1-1.2c-.3.2-.4.5-.4.8.1.4.1.4-.3.9-.1.1 0 .2.1.2.1.1.1.3.2.4.1.2-.1.4-.4.2-.1 0-.2-.1-.3.1.4.1.6.2.4.5-.1.2 0 .4 0 .7 0 .2 0 .4-.3.4-.5-.1-.4.1-.4.3 0 .1.1.5.1.6.6.2.8.2.8-.1-.1-.4.1-.6.1-1 0-1.2.3-2.4.5-3.6 0 0 .1-.2-.1-.4zm.4-1.1c-.1-.1-.1-.1-.1 0v.1s0-.1.1-.1zm.2-2.1c-.1.1-.1.2 0 .3 0 0 .1 0 .1-.1.1-.1.1-.2-.1-.2zm.7.7c0 .2-.1.3-.1.3s.1.1.1 0c.2 0 .2-.1 0-.3zM9.1 74s-.1-.1-.1 0h-.1s0 .1.1.1.1-.1.1-.1zm.7-3.7c0-.1 0-.1 0 0-.1-.1-.1 0-.2 0zm.9 2.1c.1 0 0-.1 0 0-.2-.1-.2-.1-.3 0l.1.1c.1-.1.2-.1.2-.1zm9.7-27.5c-.2.8-.6 1.5-.5 2.3.5-.7.4-1.5.5-2.3zM77.9 46l-4.2-13.2c-.5-1.6-2.9-1.6-3.4 0l-5.9 18.6c4.7-2.6 9.7-4.3 13.5-5.4zm82.6-18c.1.1.2-.1.3-.2 0-.1.1-.3 0-.4-.1 0-.2.2-.2.3-.1.2-.2.3-.1.3zm-.7-.2s0 .1 0 0c0 .1.1.1.1 0v-.2c-.1.1-.1.1-.1.2zm-.3 4.7c.2-.5.5-1 .4-1.6-.2.5-.3 1-.4 1.6zm-.4 1.7c-.2.2-.2.4-.2.7.2-.2.2-.4.2-.7zm10-26.4c.7-.9 1.2-2.8 1.2-3.9-.8 1.2-.7 2.6-1.2 3.9zm-5.6 7.6c.3-.6.5-1.2.5-1.9-.3.6-.4 1.3-.5 1.9zm7.1-12.1c.2-1 .2-1-.4-1 .3.1 0 .9.4 1zM168 7.1c.3-.4.3-.7.4-1.1-.4.2-.4.6-.4 1.1zm.3 1.5c-.1.3-.4.5-.3 1 .3-.3.4-.6.3-1zm.9-3.4v.3c0-.1.1-.1.1-.2s.1-.2 0-.3c0 .1-.1.2-.1.2zm-6.5 3.4c.1-.4.1-.7.2-1.1-.5 0-.5.7-.7 1.1-.1.3-.1.7-.2 1 .5.1.5-.6.7-1zm5.2 1.5c-.1-.1-.1.1-.2.2v.2l.1-.1c.1-.1.2-.3.1-.3zm1.4-7.3c0-.1 0-.1 0 0-.1.1-.1.1-.1.2h.1v-.2zm.2-4.5v-.2c0 .1-.1.1-.1.2v.1s.1 0 .1-.1z" fill="url(#c)"/><path d="M28.5 10.9l-5.8 28.5c.2-1.3.5-2.7.9-4.3.5-4.1 2.3 1.2 3.5 5.2l4.3 13.6 14-5.7-11.8-37.4v-.1c-.9-2.4-4.3-2.3-5.1.2z" fill="url(#d)" opacity=".39"/><path d="M94.8 49.5L82.5 10.8v-.1c-.8-2.4-4.3-2.3-5.1.1l-7.1 21.8c.6-1.6 2.8-1.6 3.3.1l6.6 21z" fill="url(#e)" opacity=".39"/><path d="M143.7 49.5l-12.3-38.6c-.8-2.5-4.3-2.5-5.1 0l-7.1 21.9c.6-1.6 2.8-1.6 3.3.1l6.6 21z" fill="url(#f)" opacity=".39"/><path d="M24.8 32.8L37 71.4v.1c.8 2.4 4.3 2.3 5.1-.1l7.1-21.8c-.6 1.6-2.8 1.6-3.3-.1l-6.6-21z" fill="url(#g)" opacity=".39"/><path d="M64.4 51.4l-9.5 21.8s8.9-10.5 25.7-18.6L77.9 46c-3.8 1.1-8.8 2.8-13.5 5.4z" fill="url(#h)" opacity=".39"/><path d="M135.2 64c.4.2 5.5 2 7.8-5.6l4.7-15.4c-1.8 1.1-3.8-.1-5.2-1.6-1.4-1.4-2.3-3.2-2.9-5.1l-4-12.6-2.6 6-10.4 3.1 8.7 27.3s1.5 2.5 3.9 3.9z" fill="url(#i)" opacity=".39"/><path d="M28.5 11.1L17.4 44.5c.5-1.2 1-2.5 1.7-4.1 1.2-3.9 6.8-3.9 8.1 0L31.4 54l14-5.7-11.8-37.2V11c-.9-2.4-4.3-2.3-5.1.1z" fill="url(#j)" opacity=".39"/><path d="M94.8 49.7L82.5 11.1V11c-.8-2.4-4.3-2.3-5.1.1l-7.1 21.8c.6-1.6 2.8-1.6 3.3.1l6.6 21z" fill="url(#k)" opacity=".39"/><path d="M143.7 49.7l-12.3-38.6c-.8-2.5-4.3-2.5-5.1 0L119.2 33c.6-1.6 2.8-1.6 3.3.1l6.6 21z" fill="url(#l)" opacity=".39"/><path d="M24.8 33L37 71.7v.1c.8 2.4 4.3 2.3 5.1-.1l7.1-21.8c-.6 1.6-2.8 1.6-3.3-.1l-6.6-21z" fill="url(#m)" opacity=".39"/><path d="M64.4 51.6l-9.5 21.8s8.9-10.5 25.7-18.6l-2.8-8.7c-3.7 1.2-8.7 3-13.4 5.5z" fill="url(#n)" opacity=".39"/><path d="M135.2 64.2c.4.2 5.5 2 7.8-5.6l4.7-15.4c-1.8 1.1-3.8-.1-5.2-1.6-1.4-1.4-2.3-3.2-2.9-5.1l-4-12.6-2.6 6-10.4 3.1 8.7 27.3s1.5 2.6 3.9 3.9z" fill="url(#o)" opacity=".39"/></svg>