<svg enable-background="new 0 0 512 512" viewBox="0 0 512 512" xmlns="http://www.w3.org/2000/svg"><path d="m473.1 511.1c-85.8 0-171.7 0-257.5 0-1.8-.7-3.7-1.3-5.5-2-17-5.8-28.3-17.2-32.1-34.9-1.8-8.3-2.2-16.8-3.3-25.2-1.2-9.5-2.4-19-3.6-28.7-2.5 0-4.5 0-6.5 0-39.8 0-79.5 0-119.3 0-25.5-.1-45.3-19.9-45.3-45.3 0-110 0-220 0-329.9 0-25.2 19.8-45.1 44.9-45.1 51.4-.1 102.8-.1 154.2 0 21.1 0 39 14.1 43.6 34.8 2 8.9 2.6 18.1 3.8 27.1 1.2 9.5 2.4 19.1 3.7 28.9h6.3 209.1c21.7 0 39.4 14.1 44.4 35.2.2.9.7 1.8 1 2.7v344.4c-.4 1.1-.8 2.1-1.1 3.2-4.5 16.6-14.8 27.7-31.3 32.9-1.8.7-3.6 1.3-5.5 1.9z"/><path d="m473.1 511.1c1.9-.6 3.7-1.2 5.6-1.8 16.5-5.2 26.8-16.3 31.3-32.9.3-1.1.7-2.1 1.1-3.2v37.9c-12.7 0-25.4 0-38 0z" fill="#fff"/></svg>