<svg id="Capa_1" enable-background="new 0 0 512 512" height="512" viewBox="0 0 512 512" width="512" xmlns="http://www.w3.org/2000/svg"><g><g><g><path d="m512 142.824v126.403c0-30.133-24.426-54.558-54.558-54.558-20.851 0-38.962 11.703-48.14 28.886-4.523-3.925-10.415-6.305-16.864-6.305-14.216 0-25.734 11.517-25.734 25.724 0 3.595.742 7.015 2.071 10.116-22.52 4.152-41.372 18.76-51.324 38.611-3.039-.371-6.119-.587-9.261-.587-18.409 0-35.263 6.624-48.336 17.606-7.438-42.227-44.287-74.328-88.657-74.328-11.826 0-23.107 2.308-33.45 6.449-1.133-14.474-12.496-26.074-26.877-27.537.051-1.04.093-2.081.093-3.132 0-28.927-22.509-52.58-50.973-54.435-1.288-15.401-14.196-27.506-29.937-27.506-16.596 0-30.05 13.454-30.05 30.05v-126.401c0-16.596 13.454-30.05 30.05-30.05 15.741 0 28.649 12.105 29.937 27.516 28.464 1.844 50.973 25.497 50.973 54.425 0 1.051-.041 2.102-.093 3.142 14.381 1.452 25.744 13.052 26.877 27.526 10.343-4.141 21.623-6.449 33.45-6.449 44.37 0 81.22 32.1 88.657 74.328 13.073-10.982 29.927-17.606 48.336-17.606 3.142 0 6.222.216 9.261.587 9.952-19.852 28.804-34.46 51.324-38.611-1.329-3.101-2.071-6.521-2.071-10.106 0-14.216 11.517-25.734 25.734-25.734 6.449 0 12.342 2.38 16.864 6.305 9.179-17.183 27.289-28.886 48.14-28.886 30.132-.001 54.558 24.425 54.558 54.557z" fill="#b5dbfd"/><path d="m512 243.185v237.354h-512v-328.299c0-16.596 13.454-30.05 30.05-30.05 15.741 0 28.649 12.105 29.937 27.506 28.464 1.854 50.973 25.507 50.973 54.435 0 1.051-.041 2.091-.093 3.132 14.381 1.463 25.744 13.063 26.877 27.537 10.343-4.141 21.623-6.449 33.45-6.449 44.37 0 81.22 32.1 88.657 74.328 13.073-10.982 29.927-17.606 48.336-17.606 3.142 0 6.222.216 9.261.587 9.952-19.852 28.804-34.46 51.324-38.611-1.329-3.101-2.071-6.521-2.071-10.116 0-14.206 11.518-25.724 25.734-25.724 6.449 0 12.342 2.38 16.864 6.305 9.179-17.183 27.289-28.886 48.14-28.886 30.135-.002 54.561 24.424 54.561 54.557z" fill="#64b9fc"/></g><g><g><path d="m172.92 195.48-10.3 34.22-63.27 210.13c-1.01 3.34-4.08 5.5-7.4 5.5-.74 0-1.49-.1-2.23-.33-4.09-1.23-6.4-5.54-5.17-9.62l63.53-211.01 10.04-33.35c1.23-4.09 5.54-6.4 9.63-5.17s6.4 5.54 5.17 9.63z" fill="#f3f0f3"/><path d="m172.92 195.48-10.3 34.22c-3.16-1.71-6.54-3.12-10.12-4.2-1.47-.44-2.94-.82-4.42-1.13l10.04-33.35c1.23-4.09 5.54-6.4 9.63-5.17s6.4 5.54 5.17 9.63z" fill="#e2dee2"/><path d="m192.765 110.502c-.738 0-1.488-.107-2.23-.33-4.087-1.23-6.401-5.54-5.171-9.626l4.368-14.506c1.23-4.088 5.543-6.398 9.626-5.171 4.087 1.23 6.401 5.54 5.171 9.626l-4.368 14.506c-1.008 3.343-4.076 5.501-7.396 5.501z" fill="#e2dee2"/><g fill="#fb4a59"><path d="m192.68 102.75c-18.25-5.33-49.26 43.55-71.36 111.17-2.72 1.31-5.33 2.86-7.79 4.61-2.77 1.97-6.61.81-7.83-2.36-5.76-14.96-18.14-27.2-34.69-32.18-13.68-4.12-27.72-2.53-39.56 3.39-4.35 2.18-9.03-2.19-7.09-6.65 27.83-64.06 99.8-98.58 168.32-77.98z"/><path d="m290.13 260.75c-.85 4.79-7.16 5.85-9.59 1.63-6.59-11.47-17.42-20.55-31.11-24.67-16.55-4.99-33.62-1.62-46.69 7.68-2.77 1.97-6.61.81-7.83-2.36-1.09-2.82-2.41-5.55-3.95-8.15 18.91-68.57 20.03-126.42 1.89-132.08 68.48 20.68 109.43 89.17 97.28 157.95z"/></g><g><path d="m290.13 260.749c-.845 4.79-7.16 5.852-9.581 1.638-5.254-9.138-13.176-16.74-23.087-21.551 1.916-61.708-37.54-119.429-99.433-138.065-7.634-2.297-15.319-3.915-22.983-4.883 18.801-2.369 38.384-.938 57.7 4.883 68.539 20.634 109.54 89.172 97.384 157.978z" fill="#f82f40"/></g><path d="m109.05 219.292c1.45.437 3.096.222 4.479-.76 13.071-9.287 30.138-12.658 46.69-7.675s28.931 17.221 34.701 32.181c.603 1.57 1.857 2.657 3.304 3.104 21.036-72.333 18.735-136.083-5.462-143.368-24.197-7.286-61.314 44.595-83.712 116.518z" fill="#99d53b"/><path d="m198.227 246.141c-1.452-.443-2.699-1.535-3.307-3.101-3.379-8.757-9.024-16.576-16.442-22.561 12.146-53.085 10.92-98.228-3.039-114.464 6.191-3.616 12.063-4.831 17.317-3.245 24.2 7.284 26.508 71.042 5.471 143.371z" fill="#8dc637"/></g></g><g><path d="m0 417.048v62.82c0 5.69 4.612 10.302 10.302 10.302h330.812c-70.557-51.849-157.69-82.476-251.962-82.476-30.576 0-60.4 3.225-89.152 9.354z" fill="#fac574"/><g fill="#9d552e"><path d="m459.09 452.979h14.659c.512-1.81.554-3.821-.004-5.768l-13.41-46.79h-16.235c.064.374.142.747.248 1.117z"/><path d="m249.734 400.421-12.696 44.299h16.308l12.375-43.182c.106-.37.184-.744.248-1.117z"/></g><g fill="#8e4d29"><path d="m448.816 417.127h16.308l-4.788-16.706h-16.236c.064.374.142.747.248 1.117z"/><path d="m261.255 417.127 4.468-15.589c.106-.37.184-.744.248-1.117h-16.236l-4.788 16.706z"/></g><path d="m341.114 490.171h-75.759c-66.436-42.845-145.575-67.703-230.503-67.703-11.734 0-23.354.474-34.851 1.411v-6.83c28.752-6.13 58.576-9.354 89.152-9.354 94.271-.001 181.403 30.626 251.961 82.476z" fill="#e8b66b"/><path d="m190.944 490.171h310.754c5.69 0 10.302-4.612 10.302-10.302v-15.422c-41.897-19.831-88.729-30.926-138.168-30.926-67.879 0-130.874 20.913-182.888 56.65z" fill="#fcd79f"/><path d="m439.622 480.544c-1.977 0-3.955-.755-5.464-2.263-3.017-3.018-3.017-7.909 0-10.928l.08-.08c3.018-3.016 7.909-3.016 10.928 0 3.017 3.018 3.017 7.909 0 10.928l-.08.08c-1.51 1.509-3.487 2.263-5.464 2.263z" fill="#e8b66b"/><g><path d="m180.892 471.742c-1.962 0-3.924-.741-5.429-2.228-3.036-2.999-3.067-7.89-.069-10.927l.079-.08c3-3.039 7.892-3.067 10.927-.069 3.036 2.999 3.067 7.89.069 10.927l-.079.08c-1.512 1.531-3.505 2.297-5.498 2.297z" fill="#fcd79f"/></g><path d="m74.169 456.699c-1.977 0-3.955-.755-5.464-2.263-3.017-3.018-3.017-7.909 0-10.928l.08-.081c3.018-3.016 7.909-3.016 10.928 0 3.017 3.018 3.017 7.909 0 10.928l-.08.08c-1.509 1.51-3.487 2.264-5.464 2.264z" fill="#e8b66b"/><path d="m98.893 469.061c-1.977 0-3.955-.755-5.464-2.263-3.017-3.018-3.017-7.909 0-10.928l.08-.08c3.018-3.016 7.909-3.016 10.928 0 3.017 3.018 3.017 7.909 0 10.928l-.08.08c-1.509 1.509-3.487 2.263-5.464 2.263z" fill="#fcd79f"/></g></g><g><g><g fill="#2db181"><path d="m336.23 342.616h-77.028l-34.837-50.41c-4.697-6.796-14.013-8.5-20.809-3.802-6.795 4.697-8.497 14.013-3.801 20.808l39.297 56.865c2.793 4.041 7.392 6.453 12.305 6.453h54.958z"/><path d="m434.072 342.616h-51.653l-29.915 29.915h51.762c9.936-9.97 19.867-19.947 29.806-29.915z"/></g><g fill="#bcea73"><path d="m383.527 342.616h-49.096c-9.972 9.972-19.943 19.943-29.915 29.915h49.096z"/><path d="m462.694 342.616h-31.583l-29.915 29.915h61.498c8.261 0 14.957-6.697 14.957-14.957 0-8.261-6.697-14.958-14.957-14.958z"/></g><g><path d="m477.654 357.576c0 8.262-6.696 14.958-14.958 14.958h-26.548c8.262 0 14.958-6.696 14.958-14.958s-6.696-14.958-14.958-14.958h26.548c8.261 0 14.958 6.696 14.958 14.958z" fill="#99d53b"/></g></g><path d="m471.465 402.498h-224.24c-5.507 0-9.972-4.464-9.972-9.972v-11.124c0-5.507 4.464-9.972 9.972-9.972h224.24c5.507 0 9.972 4.464 9.972 9.972v11.124c0 5.507-4.464 9.972-9.972 9.972z" fill="#fac574"/><path d="m481.435 381.404v11.126c0 5.501-4.461 9.972-9.972 9.972h-26.537c5.501 0 9.972-4.471 9.972-9.972v-11.126c0-5.511-4.471-9.972-9.972-9.972h26.537c5.511 0 9.972 4.461 9.972 9.972z" fill="#e8b66b"/></g></g></svg>